<svg xmlns="http://www.w3.org/2000/svg" viewBox="0 0 800 800"><defs><style>.cls-1{fill:#fff;}.cls-2{fill:#005eb3;}.cls-3{fill:#0072d9;}.cls-4{fill:#f2ba49;}.cls-5{fill:#ffd34d;}.cls-6{font-size:73px;fill:#d9a840;font-family:Quantico-Regular, Quantico;}</style></defs><g id="Background"><rect class="cls-1" width="800" height="800"/></g><g id="Objects"><polygon class="cls-2" points="380.33 340.9 338.49 447.77 371.84 435.5 388 467.16 429.85 360.29 380.33 340.9"/><polygon class="cls-3" points="412.11 340.9 453.96 447.77 420.6 435.5 404.44 467.16 362.6 360.29 412.11 340.9"/><path class="cls-4" d="M457.68,345.26h0a6.42,6.42,0,0,1-1.42-8.9,6.43,6.43,0,0,0-3.19-9.84,6.4,6.4,0,0,1-4.09-8h0a6.42,6.42,0,0,0-6.08-8.36,6.44,6.44,0,0,1-6.38-6.38,6.42,6.42,0,0,0-8.36-6.08,6.4,6.4,0,0,1-8-4.09,6.42,6.42,0,0,0-9.83-3.19,6.43,6.43,0,0,1-8.91-1.41,6.41,6.41,0,0,0-10.34,0,6.42,6.42,0,0,1-8.9,1.41,6.42,6.42,0,0,0-9.83,3.19,6.42,6.42,0,0,1-8,4.09h0a6.43,6.43,0,0,0-8.36,6.08,6.44,6.44,0,0,1-6.38,6.38,6.42,6.42,0,0,0-6.07,8.36h0a6.42,6.42,0,0,1-4.1,8,6.43,6.43,0,0,0-3.19,9.84,6.42,6.42,0,0,1-1.41,8.9h0a6.41,6.41,0,0,0,0,10.34,6.43,6.43,0,0,1,1.41,8.91,6.42,6.42,0,0,0,3.19,9.83,6.42,6.42,0,0,1,4.1,8,6.42,6.42,0,0,0,6.07,8.36,6.44,6.44,0,0,1,6.38,6.38,6.42,6.42,0,0,0,8.36,6.08h0a6.42,6.42,0,0,1,8,4.09,6.42,6.42,0,0,0,9.83,3.19,6.42,6.42,0,0,1,8.9,1.41h0a6.41,6.41,0,0,0,10.34,0h0a6.43,6.43,0,0,1,8.91-1.41,6.42,6.42,0,0,0,9.83-3.19,6.4,6.4,0,0,1,8-4.09,6.42,6.42,0,0,0,8.36-6.08,6.44,6.44,0,0,1,6.38-6.38,6.42,6.42,0,0,0,6.08-8.36,6.4,6.4,0,0,1,4.09-8,6.42,6.42,0,0,0,3.19-9.83,6.43,6.43,0,0,1,1.42-8.91h0A6.43,6.43,0,0,0,457.68,345.26Z"/><circle class="cls-5" cx="396.22" cy="350.43" r="53.6"/><path class="cls-4" d="M396.22,396.15a45.72,45.72,0,1,1,45.72-45.72A45.77,45.77,0,0,1,396.22,396.15Zm0-87.9a42.18,42.18,0,1,0,42.18,42.18A42.23,42.23,0,0,0,396.22,308.25Z"/><polygon class="cls-4" points="337.17 302.28 337.17 296.83 334.15 296.83 334.15 302.28 328.71 302.28 328.71 305.3 334.15 305.3 334.15 310.75 337.17 310.75 337.17 305.3 342.62 305.3 342.62 302.28 337.17 302.28"/><polygon class="cls-5" points="486.98 331.38 486.98 327.08 484.59 327.08 484.59 331.38 480.28 331.38 480.28 333.77 484.59 333.77 484.59 338.08 486.98 338.08 486.98 333.77 491.29 333.77 491.29 331.38 486.98 331.38"/><circle class="cls-5" cx="452.04" cy="404.29" r="4.5"/><path class="cls-5" d="M344.66,402.88a3.09,3.09,0,1,1-3.09-3.09A3.09,3.09,0,0,1,344.66,402.88Z"/><path class="cls-4" d="M339.72,389.37a4.79,4.79,0,1,1-4.78-4.78A4.78,4.78,0,0,1,339.72,389.37Z"/><path class="cls-4" d="M460.55,310.73a3.3,3.3,0,1,1-3.3-3.3A3.29,3.29,0,0,1,460.55,310.73Z"/><text class="cls-6" transform="translate(371.43 375.28)">S</text></g></svg>